<?xml version="1.0" encoding="UTF-8"?>
<svg xmlns="http://www.w3.org/2000/svg" width="266" height="182" viewBox="0 0 266 182" fill="none">
  <path d="M24.2044 114.261C8.04226 114.261 0 103.247 0 86.3261C0 68.8465 8.50619 58.3106 25.1322 58.3106C31.5507 58.3106 36.7318 59.907 40.6755 63.2592C44.3875 66.6914 46.4754 71.4003 47.0167 77.3065H40.5209C38.201 77.3065 36.4999 76.1892 35.4944 74.0342C33.716 70.1234 30.236 68.1279 25.1323 68.1279C15.1567 68.1279 10.7488 75.3911 10.7488 86.3261C10.7488 96.9412 15.002 104.444 24.823 104.444C31.5507 104.444 35.4171 100.613 36.5772 94.6265H47.0167C46.0115 107.158 37.505 114.261 24.2044 114.261Z" fill="black"></path>
  <path d="M118.291 114.219C114.874 113.978 113.165 112.295 113.165 108.926V87.1094C112.932 82.6976 110.602 80.5319 106.02 80.5319C101.437 80.5319 99.1072 82.6976 99.0295 87.1094V114.219H88.5444V89.275C88.5444 77.1636 94.447 71.1479 106.175 71.1479C117.903 71.1479 123.65 77.1636 123.573 89.275V114.219H118.291Z" fill="black"></path>
  <path d="M152.285 94.3464H138.646V114.153H127.624V64.4736C127.624 61.2817 130.082 58.4991 133.174 58.4991H151.491C162.91 58.4991 168.857 64.8009 168.857 76.4226C168.857 87.3896 163.069 94.3464 152.285 94.3464ZM149.509 84.2799C155.06 84.3614 157.835 81.6606 157.835 76.2589C157.835 70.8573 155.218 68.1564 150.064 68.1564H138.804V84.2799H149.509Z" fill="#1B9146"></path>
  <path d="M212.427 121.542C218.072 121.542 220.083 118.646 218.459 113.013L204.54 71.4105H216.217L224.336 100.942L231.451 75.1924C232.069 72.6978 233.693 71.4105 236.323 71.4105H243.514L227.352 121.221C224.878 128.222 222.403 130.636 213.897 130.636C211.268 130.636 209.876 130.555 209.566 130.314V121.542H212.427Z" fill="#1B9146"></path>
  <path d="M217.388 21.6673C198.416 16.3956 182.448 21.0646 178.658 22.2505C164.64 26.6363 152.026 35.6065 142.54 48.5078C141.785 49.5349 141.018 50.5526 140.213 51.6319C126.934 51.6262 113.654 51.6206 100.375 51.6149C100.778 50.6065 101.4 49.1157 102.237 47.3535C111.598 27.6437 127.284 17.3684 132.872 13.7518C137.491 10.7624 149.529 3.71271 166.599 1.00848C171.099 0.2957 210.012 -5.26385 237.89 19.9675C250.803 31.6546 258.393 47.2724 259.593 49.7933C261.443 53.6756 263.042 57.6796 264.382 61.7794C263.928 61.1561 260.664 56.4008 260.563 56.2469C248.459 37.755 234.403 29.0098 234.403 29.0098C229.08 25.7743 223.356 23.3041 217.388 21.6673Z" fill="#1B9146"></path>
  <path d="M241.584 149.389C234.789 154.345 227.204 158.026 219.175 160.264C212.472 162.123 197.489 165.125 180.065 159.561C166.199 155.132 153.727 146.208 144.327 133.423C143.572 132.396 142.805 131.378 142 130.299C128.655 130.215 115.309 130.131 101.963 130.047C101.894 130.23 103.455 133.571 104.024 134.577C118.547 160.267 139.795 176.214 168.386 180.922C173.357 181.741 187.131 183.496 204.215 179.361C212.498 177.357 230.657 172.712 246.243 156.697C250.505 152.318 260.456 141.846 264.795 125.279C265.399 122.971 265.772 121.015 266 119.648L265.999 119.646C265.95 119.622 264.62 122.459 264.526 122.658C263.629 124.563 260.817 129.296 256.962 134.14C254.052 137.797 249.345 143.713 241.584 149.389Z" fill="#1B9146"></path>
  <path d="M164.126 39.0289C171.518 35.5667 184.741 30.7562 200.728 32.3757C204.606 32.7685 211.708 33.5527 220.029 37.5707C226.208 40.5425 231.791 44.6887 236.489 49.7933C246.39 60.668 249.092 72.7903 250.167 77.9047C251.116 82.4194 254.469 99.5386 246.289 117.409C244.776 120.714 240.638 129.523 231.596 137.086C229.248 139.05 226.737 140.795 224.092 142.302C203.231 154.2 182.194 154.1 161.686 140.791C160.402 139.958 159.171 139.038 157.895 138.19C157.731 138.081 157.448 138.161 157.206 138.153C162.284 145.01 173.62 152.014 184.427 154.982C221.082 165.049 257.244 142.198 264.321 103.204C268.952 77.6954 260.802 55.5504 240.876 39.5995C227.199 28.65 213.493 26.1936 210.224 25.6842C203.109 24.5689 195.863 24.7134 188.795 26.1117C184.476 26.9074 180.281 28.2999 176.321 30.2519C171.834 32.4944 167.718 35.4567 164.126 39.0289Z" fill="black"></path>
  <path d="M194.331 113.379L193.6 109.249H193.357C190.759 112.536 186.699 114.306 181.99 114.306C173.953 114.306 169.163 108.237 169.163 101.663C169.163 90.9586 178.418 85.8169 192.464 85.9012V85.3113C192.464 83.1194 191.327 80.0012 185.238 80.0012C181.178 80.0012 176.875 81.4336 174.277 83.1194L172.004 74.8595C174.764 73.258 180.204 71.2351 187.43 71.2351C200.664 71.2351 204.885 79.3265 204.885 89.02V103.348C204.885 107.31 205.048 111.103 205.454 113.379H194.331ZM192.87 93.9083C186.375 93.8241 181.341 95.4256 181.341 100.399C181.341 103.686 183.452 105.288 186.212 105.288C187.624 105.294 189.003 104.842 190.154 103.995C191.305 103.149 192.17 101.949 192.626 100.567C192.792 99.8495 192.873 99.1138 192.87 98.3759V93.9083Z" fill="#1B9146"></path>
  <path d="M74.8825 113.294L74.1475 109.164H73.9026C71.2894 112.451 67.2061 114.221 62.4697 114.221C54.3848 114.221 49.5667 108.152 49.5667 101.578C49.5667 90.8736 58.8763 85.7319 73.0043 85.8162V85.2263C73.0043 83.0344 71.8608 79.9162 65.736 79.9162C61.653 79.9162 57.3248 81.3486 54.7116 83.0344L52.4249 74.7745C55.2014 73.173 60.6728 71.1501 67.9411 71.1501C81.2522 71.1501 85.4988 79.2415 85.4988 88.935V103.263C85.4988 107.225 85.6621 111.018 86.0705 113.294H74.8825ZM73.4125 93.8233C66.8795 93.7391 61.8163 95.3406 61.8163 100.314C61.8163 103.601 63.9394 105.203 66.716 105.203C68.1336 105.212 69.5184 104.762 70.6757 103.915C71.8329 103.068 72.7044 101.868 73.1676 100.482C73.3342 99.7647 73.4164 99.0289 73.4125 98.2909L73.4125 93.8233Z" fill="black"></path>
</svg>
